<svg id="Capa_1" enable-background="new 0 0 512 512" height="512" viewBox="0 0 512 512" width="512" xmlns="http://www.w3.org/2000/svg"><g><g><path clip-rule="evenodd" d="m360.242 480.604v-100.517h-208.455v100.517c0 13.153 10.743 23.896 23.867 23.896h27.014l53.347-57.203 56.578 57.203h23.754c13.123 0 23.895-10.743 23.895-23.896z" fill="#eff6ff" fill-rule="evenodd"/></g><g><path clip-rule="evenodd" d="m220.327 109.094c0-28.148 40.336-28.148 40.109 3.175v2.494c0 27.978 42.349 29.282 42.349-.085v-5.584c0-28.148 40.364-28.148 40.109 3.175v2.494c0 27.978 42.349 29.282 42.349-.085v-5.584c0-27.213 29.763-28.12 32.031.198l12.614-91.304c.793-5.726-4.734-10.488-10.488-10.488h-326.771c-5.783 0-11.31 4.762-10.516 10.488l13.408 96.775c0 2.494.312 4.762.935 6.832 6.236 21.146 41.413 19.843 41.413-6.917v-5.584c0-28.148 40.336-28.148 40.109 3.175v2.494c0 27.978 42.349 29.282 42.349-.085z" fill="#a6e0fa" fill-rule="evenodd"/></g><g><path clip-rule="evenodd" d="m379.885 379.577 41.385-299.17c-2.268-28.318-40.024-27.411-40.024-.198v5.584c0 29.367-42.349 28.063-42.349.113v-2.523c.255-31.323-40.109-31.323-40.109-3.175v5.584c0 29.367-42.349 28.063-42.349.113v-2.523c.255-31.323-40.109-31.323-40.109-3.175v5.584c0 29.367-42.349 28.063-42.349.113v-2.523c.227-31.323-40.109-31.323-40.109-3.175v5.584c0 26.759-35.177 28.063-41.413 6.917l39.656 286.867c.794 5.726 4.734 10.517 10.488 10.517h9.184 208.455 9.156c5.754.002 9.694-4.788 10.487-10.514zm-155.703-175.38c8.957-8.986 20.834-13.266 32.569-12.841 10.743.369 21.344 4.649 29.536 12.841 17.149 17.15 17.149 44.958 0 62.107-7.852 7.852-17.915 12.104-28.176 12.784-12.189.794-24.632-3.458-33.93-12.784-17.176-17.15-17.176-44.958.001-62.107z" fill="#fe8d94" fill-rule="evenodd"/></g><g><path clip-rule="evenodd" d="m312.593 504.5v-28.602c0-15.732-12.869-28.602-28.601-28.602h-52.723c-15.732 0-28.601 12.869-28.601 28.602v28.602z" fill="#a6e0fa" fill-rule="evenodd"/></g><g><path clip-rule="evenodd" d="m286.288 266.304c17.149-17.15 17.149-44.958 0-62.107-17.149-17.178-44.956-17.178-62.106 0-17.178 17.15-17.178 44.958 0 62.107 17.149 17.15 44.957 17.15 62.106 0z" fill="#fde588" fill-rule="evenodd"/></g><g><path clip-rule="evenodd" d="m286.288 266.304c17.149-17.15 17.149-44.958 0-62.107-8.192-8.192-18.793-12.472-29.536-12.841 2.098 15.959 3.203 32.627 3.203 49.777 0 12.954-.624 25.654-1.842 37.956 10.26-.681 20.323-4.933 28.175-12.785z" fill="#fdd76f" fill-rule="evenodd"/></g><g><path clip-rule="evenodd" d="m392.953 17.988-6.576 47.622c10.403-11.48 33.136-6.973 34.894 14.797l8.617-62.419c.793-5.726-4.734-10.488-10.488-10.488h-36.935c5.782 0 11.282 4.762 10.488 10.488z" fill="#75cef9" fill-rule="evenodd"/></g><g><path clip-rule="evenodd" d="m386.377 65.611-43.397 313.966c-.794 5.726-4.734 10.517-10.516 10.517h27.779 9.156c5.754 0 9.694-4.791 10.488-10.517l41.383-299.17c-1.757-21.77-24.49-26.277-34.893-14.796z" fill="#ff6d75" fill-rule="evenodd"/></g><g><path clip-rule="evenodd" d="m332.463 390.093v90.511c0 11.792-8.617 21.628-19.87 23.556v.34h23.754c13.124 0 23.895-10.743 23.895-23.896v-90.511z" fill="#d9eeff" fill-rule="evenodd"/></g><g><path clip-rule="evenodd" d="m256.014 447.297c15.732 0 28.601 12.869 28.601 28.602v28.601h27.977v-.34-28.262c0-15.732-12.869-28.602-28.601-28.602h-27.977z" fill="#75cef9" fill-rule="evenodd"/></g><g><path d="m255.221 171.417c4.143 0 7.5-3.358 7.5-7.5v-19.787c0-4.142-3.357-7.5-7.5-7.5s-7.5 3.358-7.5 7.5v19.786c0 4.143 3.357 7.501 7.5 7.501z"/><path d="m255.051 299.084c-4.143 0-7.5 3.358-7.5 7.5v19.757c0 4.142 3.357 7.5 7.5 7.5s7.5-3.358 7.5-7.5v-19.757c0-4.142-3.357-7.5-7.5-7.5z"/><path d="m191.318 235.151c0-4.142-3.357-7.5-7.5-7.5h-19.785c-4.143 0-7.5 3.358-7.5 7.5s3.357 7.5 7.5 7.5h19.785c4.142 0 7.5-3.358 7.5-7.5z"/><path d="m346.239 227.821h-19.757c-4.143 0-7.5 3.358-7.5 7.5s3.357 7.5 7.5 7.5h19.757c4.143 0 7.5-3.358 7.5-7.5s-3.358-7.5-7.5-7.5z"/><path d="m199.461 190.054c1.465 1.464 3.384 2.197 5.304 2.197 1.919 0 3.839-.732 5.303-2.196 2.93-2.929 2.93-7.678.001-10.607l-13.974-13.975c-2.929-2.928-7.678-2.929-10.606 0-2.93 2.929-2.93 7.678-.001 10.607z"/><path d="m310.804 280.441c-2.932-2.927-7.681-2.921-10.606.011-2.926 2.932-2.921 7.68.011 10.606l14.003 13.975c1.464 1.461 3.381 2.191 5.298 2.191 1.922 0 3.844-.734 5.309-2.202 2.926-2.932 2.921-7.68-.011-10.606z"/><path d="m199.354 280.328-14.003 13.975c-2.932 2.926-2.937 7.675-.011 10.606 1.465 1.468 3.387 2.202 5.309 2.202 1.917 0 3.834-.73 5.298-2.191l14.003-13.975c2.932-2.926 2.937-7.675.011-10.606-2.926-2.934-7.676-2.937-10.607-.011z"/><path d="m305.648 192.364c1.919 0 3.839-.732 5.304-2.197l13.975-13.975c2.929-2.929 2.929-7.678 0-10.606-2.93-2.929-7.678-2.929-10.607 0l-13.975 13.975c-2.929 2.929-2.929 7.678 0 10.606 1.464 1.465 3.384 2.197 5.303 2.197z"/><path d="m291.591 198.894c-9.711-9.711-22.622-15.059-36.356-15.059-13.731 0-26.642 5.347-36.352 15.055-9.728 9.711-15.084 22.625-15.085 36.361 0 13.737 5.357 26.65 15.08 36.357 9.711 9.711 22.623 15.059 36.356 15.059 13.734 0 26.646-5.348 36.356-15.059 20.048-20.048 20.048-52.668.001-72.714zm-10.607 62.107c-6.877 6.877-16.021 10.665-25.749 10.665-9.727 0-18.872-3.788-25.754-10.669-6.889-6.877-10.683-16.021-10.683-25.747.001-9.725 3.794-18.869 10.683-25.746.002-.001.003-.003.005-.004 6.877-6.878 16.022-10.666 25.749-10.666 9.728 0 18.872 3.788 25.749 10.666 14.199 14.199 14.199 37.302 0 51.501z"/><path d="m433.386 6.318c-3.467-3.961-8.671-6.318-13.907-6.318-.029 0-.058 0-.087 0l-143.713.142c-4.142.004-7.496 3.365-7.492 7.507.004 4.14 3.361 7.493 7.5 7.493h.008l143.742-.142h.014c.958 0 2.021.48 2.648 1.197.149.171.396.498.358.764l-5.574 40.306c-.736-.536-1.494-1.048-2.291-1.513-8.522-4.981-19.064-5.066-27.512-.22-8.475 4.862-13.335 13.856-13.335 24.675v5.584c0 4.63-1.365 8.229-4.058 10.693-2.366 2.167-5.665 3.359-9.287 3.359-5.201 0-14.004-2.936-14.004-13.939v-2.523c0-.012-.002-.024-.002-.037.071-12.197-5.121-22.25-14.261-27.594-8.522-4.981-19.064-5.066-27.512-.22-8.475 4.862-13.335 13.856-13.335 24.675v5.584c0 4.63-1.365 8.229-4.058 10.693-2.366 2.167-5.665 3.359-9.287 3.359-5.201 0-14.004-2.936-14.004-13.939v-2.523c0-.012-.002-.024-.002-.037.071-12.197-5.121-22.25-14.261-27.594-8.522-4.981-19.064-5.066-27.512-.22-8.475 4.862-13.335 13.856-13.335 24.675v5.584c0 4.63-1.365 8.229-4.058 10.693-2.366 2.167-5.665 3.359-9.287 3.359-5.201 0-14.004-2.936-14.004-13.939v-2.523c0-.012-.002-.023-.002-.035.062-12.205-5.141-22.263-14.287-27.603-8.521-4.974-19.055-5.055-27.494-.209-8.469 4.862-13.326 13.855-13.326 24.673v5.584c0 4.63-1.365 8.229-4.058 10.693-2.366 2.167-5.665 3.359-9.287 3.359-4.296 0-11.035-2.017-13.256-8.914l-.779-5.631c-.025-.317-.066-.63-.129-.935l-9.322-67.408c-.036-.261.208-.585.356-.755.636-.716 1.711-1.198 2.713-1.198h.016l148.419.142h.007c4.139 0 7.496-3.353 7.5-7.493.004-4.142-3.351-7.503-7.493-7.507l-148.39-.142c-.029 0-.058 0-.087 0-5.282 0-10.498 2.36-13.968 6.324-3.166 3.617-4.561 8.125-3.928 12.691l50.003 361.59c1.385 10.002 8.752 16.988 17.916 16.988h1.685v83.011c0 17.312 14.071 31.396 31.367 31.396h160.691c17.312 0 31.396-14.084 31.396-31.396v-83.011h1.656c9.164 0 16.531-6.986 17.917-16.989l50.001-361.585c.635-4.571-.761-9.081-3.929-12.701zm-223.219 490.682v-21.102c0-11.635 9.466-21.102 21.102-21.102h52.723c11.636 0 21.102 9.466 21.102 21.102v21.102zm162.289-118.452c-.194 1.399-1.083 4.045-3.059 4.045h-94.76c-4.143 0-7.5 3.358-7.5 7.5s3.357 7.5 7.5 7.5h78.104v83.011c0 9.041-7.355 16.396-16.396 16.396h-16.253v-21.102c0-19.906-16.195-36.102-36.102-36.102h-52.723c-19.906 0-36.102 16.195-36.102 36.102v21.102h-19.513c-9.024 0-16.367-7.355-16.367-16.396v-83.011h80.74c4.143 0 7.5-3.358 7.5-7.5s-3.357-7.5-7.5-7.5h-97.425c-1.976 0-2.864-2.646-3.058-4.044l-36.714-265.492c3.299 1.181 6.773 1.789 10.196 1.789 14.086 0 28.345-9.979 28.345-29.053v-5.584c0-5.455 2.004-9.488 5.795-11.665 3.736-2.145 8.629-2.083 12.463.155 4.468 2.608 6.901 7.804 6.852 14.63 0 .01.001.019.001.029 0 .008-.001.016-.001.025v2.523c0 18.797 14.943 28.939 29.004 28.939 14.086 0 28.345-9.979 28.345-29.053v-5.584c0-5.454 2.006-9.487 5.8-11.665 3.743-2.147 8.64-2.084 12.477.159 4.462 2.608 6.889 7.8 6.833 14.62 0 .011.001.022.001.033 0 .009-.001.018-.001.028v2.523c0 18.797 14.943 28.939 29.004 28.939 14.086 0 28.345-9.979 28.345-29.053v-5.584c0-5.454 2.006-9.487 5.8-11.665 3.743-2.147 8.64-2.084 12.477.159 4.462 2.608 6.889 7.8 6.833 14.62 0 .011.001.022.001.033 0 .009-.001.018-.001.028v2.523c0 18.797 14.943 28.939 29.004 28.939 14.086 0 28.345-9.979 28.345-29.053v-5.584c0-5.454 2.006-9.487 5.8-11.665 3.743-2.147 8.64-2.084 12.477.159 3.774 2.207 6.086 6.267 6.677 11.592z"/></g></g></svg>