<svg id="Capa_1" enable-background="new 0 0 512.006 512.006" height="512" viewBox="0 0 512.006 512.006" width="512" xmlns="http://www.w3.org/2000/svg"><g><g><path clip-rule="evenodd" d="m498.802 166.539c-11.367-62.451-60.748-129.097-150.921-143.101 14.119 46.061 13.119 86.061 59.756 133.066z" fill="#fe8d94" fill-rule="evenodd"/></g><g><path clip-rule="evenodd" d="m80.481 387.541c5.131 8.618 12.671 16.782 20.212 22.452 11.084-7.541 30.275-5.216 43.57-10.602-7.087-8.164-50.6-107.014-37.815-114.753-35.577 21.26-47.199 67.297-25.967 102.903z" fill="#fe8d94" fill-rule="evenodd"/></g><g><path clip-rule="evenodd" d="m163.085 339.122c8.192 13.777 21.289 34.188 25.314 50.148 8.986-1.673 23.585-7.229 28.035-17.377.085-.34.425-1.332.539-1.673 5.669-19.333 3.572-40.906-7.569-59.559-21.204-35.605-67.24-47.256-102.844-26.08 14.457-8.533 35.321 18.993 56.525 54.541z" fill="#fe8d94" fill-rule="evenodd"/></g><g><path clip-rule="evenodd" d="m193.643 374.954c7.484-1.304 15.081-2.296 22.791-3.062.085-.34.425-1.332.539-1.673 5.669-19.333 3.572-40.906-7.569-59.559-20.212-33.933-62.959-46.122-97.742-28.858 28.631-3.543 58.027 9.667 73.76 36.059 10.659 17.888 13.012 38.383 8.221 57.093z" fill="#ff6d75" fill-rule="evenodd"/></g><g><path clip-rule="evenodd" d="m118.778 364.692c5.103 8.533 10.63 16.272 16.3 22.99.482.567 1.843 2.353 2.324 2.92 21.714 10.687 37.9 2.154 51.592-14.826-.113-.454-.425-1.956-.567-2.41-3.26-12.246-9.099-26.08-17.32-39.857-21.204-35.577-50.09-57.462-64.547-48.929-.028 0-.028.028-.057.028-.028.028-.028.028-.057.028-14.371 8.676-8.872 44.479 12.332 80.056z" fill="#ccf49f" fill-rule="evenodd"/></g><g><path clip-rule="evenodd" d="m265.334 434.003c47.397 13.267 102.05.539 148.115.454 40.82-.057 74.865 9.865 91.052 56.668h-496.986c-.879-23.302 36.71-51.48 95.445-64.095l-.028.028c44.25-9.525 100.491-10.205 161.41 6.662.311.085.651.198.992.283z" fill="#a6e0fa" fill-rule="evenodd"/></g><g><path clip-rule="evenodd" d="m250.99 139.24c41.01-22.241 73.504-72.241 87.31-117.078-1.175 3.815-7.909-.737-11.764-.964h-22.876c-77.53 4.422-131.078 53.946-153.444 106.929z" fill="#fe8d94" fill-rule="evenodd"/></g><g><path clip-rule="evenodd" d="m407.637 156.504c4.507-41.728-13.805-100.097-59.756-133.066-3.147-.482-6.321-.907-9.581-1.276-52.102 22.225-82.717 75.349-87.31 117.078l73.505 8.079 82.944 9.156z" fill="#a6e0fa" fill-rule="evenodd"/></g><g><path clip-rule="evenodd" d="m453.22 161.521 45.582 5.018c-11.367-62.451-60.748-129.097-150.921-143.101 68.374 32.374 93.971 75.548 105.339 138.083z" fill="#ff6d75" fill-rule="evenodd"/></g><g><path clip-rule="evenodd" d="m102.932 427.058c44.25-9.525 100.491-10.205 161.41 6.662l.992.283c47.397 13.267 102.05.539 148.115.454 13.011 0 25.314.992 36.596 3.855-37.277-36.314-94.737-58.312-154.805-65.512-26.278-3.147-53.038-3.487-78.805-.907-9.298.907-18.482 2.211-27.44 3.884-18.199 3.373-35.576 8.306-51.592 14.826-13.295 5.386-25.626 11.849-36.71 19.39-11.027 7.541-20.779 16.13-28.971 25.825 9.553-3.402 20.013-6.378 31.239-8.788z" fill="#fde588" fill-rule="evenodd"/></g><g><path clip-rule="evenodd" d="m381.161 435.987c11.084-.85 21.912-1.502 32.288-1.531 13.011 0 25.314.992 36.596 3.855-37.277-36.313-94.737-58.311-154.805-65.511-26.278-3.147-53.038-3.487-78.805-.907-9.298.907-18.482 2.211-27.44 3.884-11.396 2.126-22.451 4.848-33.081 8.193 2.438-.312 4.904-.567 7.37-.822 25.796-2.551 52.528-2.239 78.806.907 52.158 6.264 102.361 23.698 139.071 51.932zm-308.136-1.672c-.454.51-.879 1.021-1.304 1.502 2.041-.709 4.11-1.417 6.208-2.098-1.644.199-3.288.398-4.904.596z" fill="#fdd76f" fill-rule="evenodd"/></g><g><path clip-rule="evenodd" d="m373.705 491.124h111.15 19.645c-11.027-31.892-30.36-46.661-54.455-52.812-11.282-2.863-23.585-3.855-36.596-3.855-10.375.028-21.204.68-32.288 1.531-18.369 1.446-37.447 3.402-56.383 3.912 21.515 6.973 38.751 21.799 48.927 51.224z" fill="#75cef9" fill-rule="evenodd"/></g><path d="m511.537 488.527c-8.235-23.724-21.255-40.056-39.801-49.929-5.474-2.914-11.426-5.252-17.977-7.05-16.086-15.335-36.003-28.539-59.255-39.252-3.764-1.736-8.218-.089-9.95 3.673-1.733 3.762-.089 8.217 3.673 9.95 13.586 6.26 25.918 13.402 36.897 21.336-3.637-.192-7.405-.298-11.348-.298-.113 0-.228 0-.341 0-15.028.027-30.502 1.336-46.886 2.72-33.551 2.835-68.244 5.768-99.193-2.896-.042-.012-.158-.042-.199-.053l-.259-.076c-.199-.06-.394-.117-.554-.161-70.614-19.55-128.275-14.585-164.389-6.894-.189.026-.379.06-.568.1-.616.132-1.22.277-1.833.412 25.432-18.98 60.101-32.397 100.599-38.603 51.374-7.87 108.756-3.33 157.435 12.459 3.94 1.281 8.17-.879 9.448-4.819s-.88-8.171-4.82-9.448c-18.555-6.019-38.321-10.465-58.545-13.295-.02-.003-.034-.021-.031-.041l27.343-210.746c.003-.02.021-.034.04-.032l68.111 7.51c.02.002.035.02.032.04l-1.412 12.902c-.363 3.316 1.321 6.629 4.364 7.994 1.062.476 2.075.668 3.063.668 3.776 0 7.026-2.845 7.446-6.685l1.449-13.235c.002-.02.02-.035.04-.032l76.406 8.425-1.47 13.264c-.456 4.117 2.512 7.824 6.628 8.28.281.031.56.047.835.047 3.772 0 7.02-2.839 7.445-6.675l2.296-20.723c.005-.049.004-.098.009-.147.004-.047.006-.094.008-.141.05-.694.01-1.375-.122-2.028-.002-.012-.002-.025-.005-.037-6.58-35.932-24.544-70.093-50.598-96.21-27.994-28.062-64.571-46.165-106.277-52.727-.178-.033-.356-.065-.535-.085-3.179-.492-6.384-.925-9.62-1.282-.031-.003-.063-.006-.094-.009-.014-.001-.027-.003-.041-.004-50.1-5.464-96.617 6.201-134.526 33.746-3.411 2.478-4.119 7.293-1.525 10.654 2.5 3.239 7.258 3.714 10.572 1.315 28.127-20.365 61.491-31.224 97.66-31.979.037-.001.052.047.021.067-38.273 26.007-60.521 67.799-66.573 102.446-.003.019-.021.032-.04.03l-83.152-9.157c-.026-.003-.041-.03-.029-.053 6.797-13.639 15.531-26.381 26.044-37.982 3.134-3.457 2.441-9.04-1.823-11.549-3.106-1.827-7.091-.959-9.507 1.716-13.867 15.353-24.882 32.555-32.745 51.136-.012.027-.024.055-.036.082-.006.015-.013.03-.02.045-.014.033-.023.068-.036.102-.086.211-.163.426-.229.647-.026.085-.046.17-.069.256-.046.176-.088.353-.122.534-.02.105-.036.21-.051.315-.011.08-.03.156-.038.237l-2.257 20.369c-.461 4.163 2.531 8.242 6.7 8.646.243.024.485.035.724.035 3.772 0 7.02-2.839 7.445-6.675l1.467-13.237c.002-.02.02-.035.041-.032l85.793 9.447c.02.002.035.02.032.041l-1.431 12.915c-.464 4.184 2.552 8.238 6.744 8.622.229.021.457.031.683.031 3.772 0 7.02-2.839 7.445-6.675l1.469-13.252c.002-.02.02-.035.041-.032l58.379 6.429c.02.002.035.021.032.041l-27.325 210.609c-.003.02-.02.034-.04.032-20.791-2.068-41.869-2.435-62.446-1.041-.023.002-.042-.019-.038-.042 3.432-19.42-.189-39.659-10.372-56.71-11.293-18.954-29.286-32.372-50.664-37.782-21.36-5.405-43.547-2.172-62.48 9.105-.013.008-.027.014-.04.022l-.001.001c-39.104 23.318-51.944 74.106-28.626 113.21 3.816 6.41 8.921 12.726 14.599 18.166.016.015.014.041-.003.054-7.922 6.091-15.015 12.7-21.191 19.785-.004.005-.009.008-.015.01-14.835 5.415-27.965 11.987-38.819 19.514-18.916 13.122-29.065 28.169-28.587 42.382.136 4.033 3.499 7.335 7.535 7.335h496.949c3.385 0 6.479-2.284 7.327-5.847.333-1.404.183-2.888-.29-4.251zm-136.91-451.296c67.148 20.726 102.879 73.658 114.636 120.66.006.025-.015.048-.04.046l-73.537-8.109c-.019-.002-.033-.018-.032-.038 1.561-34.488-10.616-79.031-41.065-112.5-.025-.027.002-.07.038-.059zm-115.045 95.394c-.021-.002-.036-.022-.032-.043 6.927-37.678 35.346-82.844 79.916-102.719.006-.003.013-.004.02-.003 1.819.218 3.623.455 5.406.714.006.001.012.003.017.007 39.234 29.041 57.19 79.261 55.805 117.557-.001.021-.02.038-.041.035zm-124.784 149.632c8.786-1.335 17.833-.921 26.706 1.323 17.493 4.428 32.216 15.408 41.462 30.926 9.047 15.148 11.765 33.365 7.639 50.464-.004.015-.016.026-.032.028-4.263.484-8.5 1.038-12.693 1.681-1.132.173-2.253.362-3.377.546-.018.003-.035-.008-.041-.025-3.704-12.224-9.499-25.107-16.912-37.53-12.779-21.447-28.242-38.366-42.767-47.346-.029-.017-.019-.061.015-.067zm-24.451 8.792c.003-.002.007-.004.01-.006 1.623-.964 3.954-1.073 6.93-.321 11.483 2.901 30.585 18.444 47.38 46.63 6.482 10.864 11.594 22.04 14.959 32.641.007.021-.006.042-.028.047-14.048 3.01-27.342 6.904-39.74 11.612-.015.006-.031.001-.041-.011-5.184-6.277-10.094-13.26-14.597-20.79-9.786-16.41-16.373-33.265-18.549-47.458-1.746-11.387-.339-19.946 3.676-22.344zm-23.424 92.651c-14.463-24.255-11.917-53.99 4.086-75.278.021-.027.064-.015.066.019.137 2.314.385 4.718.769 7.226 2.462 16.06 9.74 34.835 20.497 52.874 4.063 6.796 8.44 13.19 13.057 19.102.014.018.008.045-.014.055-8.567 3.932-16.618 8.289-24.097 13.043-.014.009-.032.007-.044-.003-5.564-4.916-10.735-11.017-14.32-17.038zm406.455 99.925h-476.888c-.026 0-.045-.027-.035-.051 7.004-17.065 38.91-38.534 87.496-49.085.186-.025.373-.059.559-.099 34.43-7.411 89.759-12.291 157.858 6.564l.216.064c.264.079.535.158.807.229 33.534 9.366 69.571 6.321 104.42 3.376 16.066-1.358 31.241-2.641 45.646-2.667h.305c42.219 0 66.088 12.224 79.649 41.615.012.025-.006.054-.033.054z"/></g></svg>