<?xml version="1.0" encoding="iso-8859-1"?>
<!-- Generator: Adobe Illustrator 19.0.0, SVG Export Plug-In . SVG Version: 6.00 Build 0)  -->
<svg version="1.1" id="Capa_1" xmlns="http://www.w3.org/2000/svg" xmlns:xlink="http://www.w3.org/1999/xlink" x="0px" y="0px"
	 viewBox="0 0 512 512" style="enable-background:new 0 0 512 512;" xml:space="preserve">
<path style="fill:#EAEAEA;" d="M439.309,504.5H72.692c-11.185,0-20.252-9.067-20.252-20.252V27.752
	C52.44,16.567,61.507,7.5,72.692,7.5h366.615c11.185,0,20.252,9.067,20.252,20.252v456.496
	C459.56,495.433,450.493,504.5,439.309,504.5z"/>
<path style="opacity:0.12;enable-background:new    ;" d="M439.309,7.5H421.33c11.185,0,20.252,9.067,20.252,20.252v456.496
	c0,11.185-9.067,20.252-20.252,20.252h17.978c11.185,0,20.252-9.067,20.252-20.252V27.752C459.56,16.567,450.492,7.5,439.309,7.5z"
	/>
<rect x="85.79" y="44.1" style="fill:#9EDBF5;" width="340.41" height="340.41"/>
<circle style="fill:#F4D06D;" cx="247.94" cy="226.84" r="138.01"/>
<g>
	<path style="fill:#394049;" d="M160.114,120.366c-37.025,30.598-57.002,79.675-48.098,130.355c1.116-0.148,2.232-0.307,3.351-0.504
		c42.713-7.531,71.234-48.263,63.702-90.977C176.417,144.2,169.636,130.932,160.114,120.366z"/>
	<path style="fill:#394049;" d="M294.05,96.749c45.258,16.089,80.815,55.374,89.781,106.043c-1.099,0.242-2.202,0.475-3.321,0.673
		c-42.713,7.532-83.445-20.989-90.976-63.702C286.882,124.722,288.716,109.935,294.05,96.749z"/>
</g>
<path style="opacity:0.12;enable-background:new    ;" d="M383.847,202.876C371.546,133.109,308.837,84.9,239.779,89.075
	c62.244,3.787,116.11,49.692,127.414,113.801c13.235,75.061-36.884,146.638-111.944,159.873c-5.292,0.933-10.566,1.54-15.804,1.857
	c10.633,0.647,21.508,0.074,32.459-1.857C346.964,349.515,397.082,277.937,383.847,202.876z"/>
<path style="fill:#394049;" d="M363.828,66.272c0,0-110.48,19.481-139.854,24.66c-36.387,6.416-66.911,26.543-87.2,54.13
	c0.085,1.229,0.213,2.462,0.407,3.701c3.707,23.662,26.863,39.481,50.449,35.322l118.663-20.923
	c42.154-7.433,71.601-44.593,70.581-86.12C376.706,70.205,370.563,65.085,363.828,66.272z"/>
<path style="opacity:0.12;enable-background:new    ;" d="M376.874,77.041c-0.168-6.836-6.311-11.957-13.046-10.769
	c0,0-5.397,0.952-14.114,2.489c4.055,1.671,7.012,5.629,7.13,10.409c0.956,38.913-24.07,74.095-61.292,85.885l10.742-1.894
	C348.447,155.728,377.893,118.568,376.874,77.041z"/>
<g>
	<path style="fill:#FFFFFF;" d="M179.006,283.774c-3.571,0-6.736-2.56-7.377-6.199c-0.719-4.079,2.005-7.969,6.084-8.688
		l11.616-2.048c4.08-0.72,7.969,2.004,8.689,6.084c0.719,4.079-2.005,7.969-6.084,8.688l-11.616,2.048
		C179.877,283.737,179.439,283.774,179.006,283.774z"/>
	<path style="fill:#FFFFFF;" d="M321.572,258.637c-3.571,0-6.736-2.56-7.377-6.199c-0.719-4.079,2.005-7.969,6.084-8.688
		l11.616-2.048c4.083-0.725,7.97,2.004,8.688,6.084c0.719,4.079-2.005,7.969-6.084,8.688l-11.616,2.048
		C322.441,258.6,322.003,258.637,321.572,258.637z"/>
</g>
<path d="M391.218,201.494c0-0.003-0.001-0.006-0.001-0.009c-0.055-0.311-0.123-0.619-0.18-0.929
	c-0.232-1.263-0.469-2.525-0.734-3.78c-0.043-0.203-0.095-0.404-0.138-0.607c-4.563-21.162-13.788-41.04-26.945-58.111
	c0.124-0.151,0.255-0.294,0.378-0.445c13.937-17.177,21.314-38.753,20.773-60.756c-0.134-5.475-2.634-10.597-6.858-14.054
	c-4.19-3.429-9.654-4.86-14.988-3.916L222.672,83.546c-36.299,6.4-68.388,26.017-90.615,55.316
	c-0.005,0.007-0.011,0.012-0.016,0.019l-0.256,0.338c-0.353,0.464-0.705,0.928-1.05,1.397l0,0c0,0.001-0.001,0.001-0.001,0.002
	c-0.002,0.002-0.003,0.005-0.005,0.007c-0.106,0.145-0.207,0.292-0.302,0.443c-23.564,32.282-32.72,71.695-25.783,111.04
	c6.749,38.274,27.999,71.631,59.836,93.924c24.739,17.322,53.566,26.353,83.149,26.353c8.489,0,17.042-0.744,25.576-2.249
	c22.836-4.026,44.587-13.539,62.904-27.51c17.718-13.514,32.328-31.234,42.249-51.247c1.84-3.711,0.323-8.211-3.388-10.051
	c-3.711-1.838-8.211-0.322-10.051,3.389c-18.376,37.063-53.635,63.474-94.319,70.647c-34.328,6.051-68.962-1.625-97.517-21.619
	c-26.531-18.578-44.857-45.723-52.178-77.012c32.292-7.371,57.415-32.605,64.708-64.801c1.111-0.121,2.219-0.267,3.318-0.461
	l105.697-18.637c15.935,24.651,43.32,39.324,72.267,39.324c3.53,0,7.085-0.228,10.644-0.673c1.957,16.297,0.847,32.557-3.323,48.435
	c-1.052,4.007,1.343,8.107,5.349,9.159c0.639,0.168,1.28,0.248,1.91,0.248c3.326,0,6.365-2.229,7.249-5.597
	c5.347-20.359,6.191-41.271,2.508-62.155C391.229,201.547,391.223,201.521,391.218,201.494z M304.991,155.775l-118.663,20.924
	c-2.177,0.382-4.4,0.559-6.599,0.543c-3.794-0.188-7.198,2.519-7.784,6.359c-4.38,28.695-25.687,51.637-53.635,58.334
	c-3.885-32.894,4.687-65.442,24.509-92.402c0.005-0.007,0.011-0.015,0.016-0.021l0.294-0.401c0.277-0.378,0.554-0.757,0.837-1.13
	c19.936-26.305,48.733-43.917,81.31-49.662L365.13,73.658c1.402-0.245,2.41,0.365,2.883,0.753c0.493,0.403,1.326,1.306,1.363,2.814
	c0.453,18.438-5.736,36.527-17.426,50.936C340.145,142.71,323.468,152.518,304.991,155.775z M310.921,169.883
	c15.538-3.328,29.889-10.564,41.735-20.934c0.585,0.786,1.16,1.58,1.726,2.378c0.147,0.207,0.296,0.412,0.441,0.62
	c0.578,0.824,1.143,1.658,1.701,2.495c0.183,0.275,0.366,0.549,0.547,0.825c0.531,0.809,1.051,1.624,1.564,2.444
	c0.193,0.309,0.383,0.618,0.573,0.928c0.496,0.81,0.986,1.623,1.464,2.443c0.187,0.321,0.369,0.644,0.553,0.967
	c0.472,0.826,0.941,1.654,1.395,2.49c0.16,0.294,0.312,0.592,0.47,0.888c0.467,0.877,0.933,1.755,1.38,2.642
	c0.024,0.048,0.047,0.097,0.071,0.145c1.003,1.997,1.948,4.022,2.848,6.068c0.109,0.249,0.226,0.495,0.333,0.744
	c0.313,0.724,0.608,1.455,0.908,2.185c0.217,0.529,0.439,1.055,0.649,1.587c0.265,0.67,0.517,1.345,0.771,2.02
	c0.227,0.603,0.455,1.207,0.673,1.814c0.231,0.642,0.453,1.287,0.673,1.932c0.223,0.652,0.443,1.306,0.656,1.962
	c0.201,0.619,0.397,1.24,0.589,1.863c0.215,0.697,0.422,1.397,0.626,2.098c0.172,0.595,0.344,1.189,0.508,1.787
	c0.206,0.752,0.402,1.507,0.594,2.262c0.142,0.557,0.288,1.113,0.423,1.672c0.04,0.164,0.074,0.33,0.113,0.495
	C350.267,199.514,326.022,189.187,310.921,169.883z M459.56,98.771c-4.142,0-7.5,3.357-7.5,7.5v377.977
	c0,7.031-5.721,12.752-12.752,12.752H72.692c-7.031,0-12.752-5.721-12.752-12.752v-43.392c0-4.143-3.358-7.5-7.5-7.5
	s-7.5,3.357-7.5,7.5v43.392C44.94,499.551,57.39,512,72.692,512h366.615c15.302,0,27.752-12.449,27.752-27.752V106.271
	C467.06,102.129,463.702,98.771,459.56,98.771z M243.755,251.449c-1.476,0.254-2.884-0.728-3.143-2.201
	c-0.719-4.078-4.605-6.805-8.689-6.083c-4.08,0.719-6.803,4.609-6.084,8.689c1.514,8.583,9.005,14.639,17.435,14.639
	c1.017,0,2.049-0.089,3.085-0.271c3.738-0.659,6.997-2.452,9.485-4.964c3.289,1.559,6.971,2.063,10.63,1.417
	c9.618-1.696,16.063-10.901,14.367-20.52c-0.719-4.079-4.605-6.804-8.689-6.083c-4.08,0.719-6.803,4.609-6.084,8.688
	c0.26,1.473-0.727,2.883-2.2,3.143c-1.477,0.254-2.883-0.727-3.142-2.201c-0.719-4.079-4.608-6.805-8.689-6.083
	c-3.637,0.641-6.197,3.803-6.199,7.372c0,0.434,0.038,0.874,0.115,1.316C246.214,249.779,245.228,251.189,243.755,251.449z
	 M426.207,392.017c4.142,0,7.5-3.357,7.5-7.5V44.104c0-4.143-3.358-7.5-7.5-7.5H85.794c-4.142,0-7.5,3.357-7.5,7.5v340.413
	c0,4.143,3.358,7.5,7.5,7.5H426.207z M93.294,51.604h325.413v325.413H93.294V51.604z M321.27,215.409
	c-4.079,0.719-6.803,4.608-6.084,8.688l0.92,5.218c0.642,3.64,3.806,6.199,7.377,6.199c0.432,0,0.871-0.037,1.311-0.115
	c4.079-0.719,6.803-4.608,6.084-8.688l-0.92-5.218C329.238,217.414,325.35,214.686,321.27,215.409z M439.309,0H72.692
	C57.39,0,44.94,12.449,44.94,27.752v379.905c0,4.143,3.358,7.5,7.5,7.5s7.5-3.357,7.5-7.5V27.752C59.94,20.721,65.661,15,72.692,15
	h366.615c7.031,0,12.752,5.721,12.752,12.752V73.48c0,4.143,3.358,7.5,7.5,7.5s7.5-3.357,7.5-7.5V27.752
	C467.06,12.449,454.61,0,439.309,0z M180.849,252.713c0.048-0.008,0.181-0.032,0.332,0.074c0.151,0.105,0.174,0.236,0.183,0.286
	c0.719,4.08,4.614,6.808,8.688,6.084c4.08-0.719,6.803-4.608,6.084-8.688c-0.716-4.063-2.972-7.604-6.351-9.97
	c-3.379-2.367-7.478-3.278-11.54-2.559c-8.386,1.479-14.006,9.504-12.528,17.891c0.642,3.64,3.806,6.2,7.377,6.199
	c0.432,0,0.871-0.037,1.311-0.115c4.08-0.719,6.803-4.608,6.085-8.687C180.447,252.986,180.608,252.756,180.849,252.713z"/>
<g>
</g>
<g>
</g>
<g>
</g>
<g>
</g>
<g>
</g>
<g>
</g>
<g>
</g>
<g>
</g>
<g>
</g>
<g>
</g>
<g>
</g>
<g>
</g>
<g>
</g>
<g>
</g>
<g>
</g>
</svg>
