<svg height="512pt" viewBox="0 0 512 512.07093" width="512pt" xmlns="http://www.w3.org/2000/svg"><path d="m503.558594 375.539062c-.023438 70.679688-57.316406 127.976563-128 128-4.191406.03125-8.378906-.195312-12.542969-.683593-.167969 0-.339844.085937-.511719 0-65.230468-6.765625-114.796875-61.738281-114.796875-127.316407 0-65.582031 49.566407-120.554687 114.796875-127.320312.171875-.082031.34375 0 .511719 0 4.164063-.484375 8.351563-.714844 12.542969-.679688 70.683594.023438 127.976562 57.316407 128 128zm0 0" fill="#549414"/><path d="m477.960938 375.539062c-.054688 65.613282-49.679688 120.578126-114.945313 127.316407-.167969 0-.339844.085937-.511719 0-65.230468-6.765625-114.796875-61.738281-114.796875-127.316407 0-65.582031 49.566407-120.554687 114.796875-127.320312.171875-.082031.34375 0 .511719 0 65.265625 6.742188 114.890625 61.707031 114.945313 127.320312zm0 0" fill="#60a917"/><g fill="#fac176"><path d="m256.09375 101.617188v36.4375c.007812 10.933593-4.332031 21.421874-12.0625 29.152343-7.734375 7.730469-18.21875 12.070313-29.152344 12.0625h-1.453125c-25.597656 0-34.132812-11.433593-34.132812-25.597656v-52.054687c0-13.667969 11.082031-24.746094 24.746093-24.746094h27.308594c13.667969 0 24.746094 11.078125 24.746094 24.746094zm0 0"/><path d="m179.292969 93.085938v32.511718c.003906 9.707032-3.851563 19.019532-10.71875 25.886719-6.867188 6.867187-16.179688 10.722656-25.886719 10.71875h-1.28125c-7.558594.585937-15.03125-1.898437-20.730469-6.894531-5.703125-4.992188-9.148437-12.074219-9.5625-19.644532-.070312-.765624-.101562-1.535156-.085937-2.300781v-40.277343c0-6.566407 2.605468-12.859376 7.246094-17.5 4.644531-4.640626 10.9375-7.25 17.5-7.25h18.773437c13.667969 0 24.746094 11.082031 24.746094 24.75zm0 0"/><path d="m111.113281 135.664062c-6.03125 6.121094-14.28125 9.539063-22.871093 9.472657h-1.195313c-7.179687.492187-14.230469-2.074219-19.417969-7.0625-5.183594-4.992188-8.019531-11.941407-7.800781-19.132813v-8.535156c-.21875 7.195312 2.617187 14.144531 7.800781 19.132812 5.1875 4.992188 12.238282 7.558594 19.417969 7.066407h1.195313c8.546874.054687 16.757812-3.328125 22.785156-9.386719v6.144531c-.015625.765625.015625 1.535157.085937 2.300781zm0 0"/><path d="m59.828125 68.507812v10.835938c0 1.027344-.085937 1.964844-.171875 2.988281-.425781 4.898438-2.296875 9.5625-5.375 13.398438-3.203125 4.175781-8.136719 6.65625-13.398438 6.742187-4.515624-.328125-8.703124-2.496094-11.574218-5.996094s-4.179688-8.03125-3.613282-12.523437v-15.617187c-.128906-9.246094 7.222657-16.863282 16.46875-17.066407h1.195313c4.472656.09375 8.722656 1.964844 11.816406 5.199219 3.089844 3.234375 4.761719 7.566406 4.652344 12.039062zm0 0"/><path d="m332.894531 101.617188v52.054687c0 14.164063-8.535156 25.597656-34.132812 25.597656h-1.453125c-10.933594.007813-21.417969-4.332031-29.152344-12.0625-7.730469-7.730469-12.070312-18.21875-12.0625-29.152343v-36.4375c0-13.667969 11.078125-24.746094 24.746094-24.746094h27.308594c13.664062 0 24.746093 11.078125 24.746093 24.746094zm0 0"/><path d="m401.160156 93.085938v40.277343c.015625.765625-.015625 1.535157-.085937 2.300781-.414063 7.570313-3.859375 14.652344-9.5625 19.644532-5.699219 4.996094-13.171875 7.480468-20.730469 6.894531h-1.28125c-9.707031.003906-19.019531-3.851563-25.886719-10.71875-6.867187-6.867187-10.722656-16.179687-10.71875-25.886719v-32.511718c0-13.667969 11.078125-24.75 24.746094-24.75h18.773437c13.667969 0 24.746094 11.082031 24.746094 24.75zm0 0"/><path d="m452.359375 110.40625v8.535156c.21875 7.191406-2.617187 14.140625-7.800781 19.132813-5.1875 4.988281-12.238282 7.554687-19.417969 7.0625h-1.195313c-8.589843.066406-16.84375-3.351563-22.871093-9.472657.070312-.765624.101562-1.535156.085937-2.300781v-6.144531c6.027344 6.058594 14.238282 9.441406 22.785156 9.386719h1.195313c7.179687.492187 14.230469-2.074219 19.417969-7.066407 5.183594-4.988281 8.019531-11.9375 7.800781-19.132812zm0 0"/><path d="m486.492188 68.335938v15.617187c.566406 4.492187-.742188 9.023437-3.613282 12.523437s-7.058594 5.667969-11.574218 5.996094c-5.261719-.085937-10.195313-2.566406-13.398438-6.742187-3.078125-3.835938-4.949219-8.5-5.375-13.398438-.085938-1.023437-.171875-1.960937-.171875-2.988281v-10.835938c-.109375-4.472656 1.5625-8.804687 4.652344-12.039062 3.09375-3.234375 7.34375-5.105469 11.816406-5.199219h1.195313c9.246093.203125 16.597656 7.820313 16.46875 17.066407zm0 0"/></g><path d="m256.09375 101.617188v27.90625c.007812 10.929687-4.332031 21.417968-12.0625 29.148437-7.734375 7.730469-18.21875 12.074219-29.152344 12.066406h-1.453125c-3.023437.03125-6.046875-.167969-9.042969-.597656-18.605468-2.390625-25.089843-12.628906-25.089843-25.003906v-43.519531c0-13.667969 11.082031-24.746094 24.746093-24.746094h27.308594c13.667969 0 24.746094 11.078125 24.746094 24.746094zm0 0" fill="#cfd8dc"/><path d="m239.027344 101.617188v27.90625c.074218 20.238281-14.648438 37.496093-34.644532 40.617187-18.605468-2.390625-25.089843-12.628906-25.089843-25.003906v-43.519531c0-13.667969 11.082031-24.746094 24.746093-24.746094h10.242188c13.667969 0 24.746094 11.078125 24.746094 24.746094zm0 0" fill="#f5f5f5"/><path d="m179.292969 93.085938v23.976562c.003906 9.710938-3.851563 19.023438-10.71875 25.890625-6.867188 6.863281-16.179688 10.71875-25.886719 10.71875h-1.28125c-2.726562.039063-5.449219-.25-8.105469-.855469-12.425781-2.433594-21.585937-13.035156-22.1875-25.683594-.070312-.765624-.101562-1.535156-.085937-2.304687v-31.742187c0-13.667969 11.078125-24.75 24.746094-24.75h18.773437c13.667969 0 24.746094 11.082031 24.746094 24.75zm0 0" fill="#cfd8dc"/><path d="m162.226562 93.085938v23.976562c.015626 17.253906-12.050781 32.167969-28.925781 35.753906-12.425781-2.433594-21.585937-13.035156-22.1875-25.683594-.070312-.765624-.101562-1.535156-.085937-2.304687v-31.742187c0-6.566407 2.605468-12.859376 7.246094-17.5 4.644531-4.640626 10.9375-7.25 17.5-7.25h1.707031c13.667969 0 24.746093 11.082031 24.746093 24.75zm0 0" fill="#f5f5f5"/><path d="m118.792969 75.078125c-4.957031 4.675781-7.765625 11.191406-7.765625 18.007813v34.132812c-6.027344 6.058594-14.238282 9.441406-22.785156 9.386719h-1.195313c-5.632813.15625-11.183594-1.355469-15.957031-4.351563-7.164063-4.945312-11.390625-13.140625-11.261719-21.847656v-25.855469c-.015625-.742187.011719-1.480469.085937-2.21875 1.148438-12.761719 11.847657-22.535156 24.660157-22.527343h11.09375c7.941406.007812 15.410156 3.773437 20.136719 10.152343 1.207031 1.578125 2.210937 3.296875 2.988281 5.121094zm0 0" fill="#dfc49c"/><path d="m103.859375 70.8125c-4.957031 4.675781-7.765625 11.191406-7.765625 18.003906v51.203125c-5.886719 5.886719-13.824219.851563-22.785156.851563l-1.195313-8.535156c-.339843.015624-.6875-.011719-1.023437-.082032-7.164063-4.945312-11.390625-13.140625-11.261719-21.847656v-25.855469c-.015625-.742187.011719-1.480469.085937-2.21875 1.148438-12.761719 11.847657-22.535156 24.660157-22.527343h10.070312c2.390625 1.597656 4.496094 3.589843 6.226563 5.886718 1.207031 1.574219 2.210937 3.296875 2.988281 5.121094zm0 0" fill="#ffe0b2"/><path d="m111.113281 127.132812-.085937.085938v-2.390625c-.015625.769531.015625 1.539063.085937 2.304687zm0 0" fill="#f9eab0"/><path d="m59.828125 68.507812v2.304688c0 1.023438-.085937 1.960938-.171875 2.988281-.425781 4.898438-2.296875 9.558594-5.375 13.394531-3.203125 4.175782-8.136719 6.660157-13.398438 6.742188-4.515624-.324219-8.703124-2.492188-11.574218-5.992188-2.871094-3.503906-4.179688-8.03125-3.613282-12.523437v-7.085937c-.128906-9.246094 7.222657-16.863282 16.46875-17.066407h1.195313c4.472656.09375 8.722656 1.964844 11.816406 5.199219 3.089844 3.234375 4.761719 7.566406 4.652344 12.039062zm0 0" fill="#ffe0b2"/><path d="m332.894531 101.617188v43.519531c0 14.167969-8.535156 25.601562-34.132812 25.601562h-1.453125c-2.203125.015625-4.402344-.183593-6.570313-.597656-19.996093-3.121094-34.71875-20.378906-34.644531-40.617187v-27.90625c0-13.667969 11.078125-24.746094 24.746094-24.746094h27.308594c13.664062 0 24.746093 11.078125 24.746093 24.746094zm0 0" fill="#cfd8dc"/><path d="m315.828125 101.617188v43.519531c0 12.375-6.488281 22.613281-25.089844 25.003906-19.996093-3.121094-34.71875-20.378906-34.644531-40.617187v-27.90625c0-13.667969 11.078125-24.746094 24.746094-24.746094h10.242187c13.664063 0 24.746094 11.078125 24.746094 24.746094zm0 0" fill="#f5f5f5"/><path d="m401.160156 93.085938v31.742187c.015625.769531-.015625 1.539063-.085937 2.304687-.414063 7.566407-3.859375 14.648438-9.5625 19.644532-5.699219 4.992187-13.171875 7.480468-20.730469 6.894531h-1.28125c-2.582031.019531-5.160156-.265625-7.679688-.855469-16.875-3.585937-28.941406-18.5-28.925781-35.753906v-23.976562c0-13.667969 11.078125-24.75 24.746094-24.75h18.773437c13.667969 0 24.746094 11.082031 24.746094 24.75zm0 0" fill="#cfd8dc"/><path d="m384.09375 93.085938v31.742187c.015625.769531-.015625 1.539063-.085938 2.304687-.601562 12.648438-9.761718 23.25-22.1875 25.683594-16.875-3.585937-28.941406-18.5-28.925781-35.753906v-23.976562c0-13.667969 11.078125-24.75 24.746094-24.75h1.707031c13.667969 0 24.746094 11.082031 24.746094 24.75zm0 0" fill="#f5f5f5"/><path d="m452.359375 84.550781v25.855469c.21875 7.195312-2.617187 14.144531-7.800781 19.132812-5.1875 4.992188-12.238282 7.558594-19.417969 7.066407h-1.195313c-2.617187-.003907-5.222656-.320313-7.765624-.941407-5.699219-1.355468-10.898438-4.285156-15.019532-8.445312v-34.132812c0-6.816407-2.808594-13.332032-7.765625-18.007813.777344-1.824219 1.78125-3.542969 2.988281-5.121094 4.082032-5.523437 10.25-9.128906 17.066407-9.980469h.085937c1.023438-.085937 1.960938-.171874 2.984375-.171874h11.09375c12.8125-.007813 23.511719 9.765624 24.660157 22.527343.074218.738281.101562 1.476563.085937 2.21875zm0 0" fill="#dfc49c"/><path d="m435.292969 84.550781v25.855469c.34375 11.863281-7.605469 22.367188-19.113281 25.257812-5.699219-1.355468-10.898438-4.285156-15.019532-8.445312v-34.132812c0-6.816407-2.808594-13.332032-7.765625-18.007813.777344-1.824219 1.78125-3.542969 2.988281-5.121094 4.082032-5.523437 10.25-9.128906 17.066407-9.980469h.085937c11.585938 1.417969 20.613282 10.730469 21.671875 22.355469.074219.738281.101563 1.476563.085938 2.21875zm0 0" fill="#ffe0b2"/><path d="m401.160156 124.828125v2.390625l-.085937-.085938c.070312-.765624.101562-1.535156.085937-2.304687zm0 0" fill="#f9eab0"/><path d="m486.492188 68.335938v7.085937c.566406 4.492187-.742188 9.019531-3.613282 12.523437-2.871094 3.5-7.058594 5.667969-11.574218 5.992188-5.261719-.082031-10.195313-2.566406-13.398438-6.742188-3.078125-3.835937-4.949219-8.496093-5.375-13.394531-.085938-1.027343-.171875-1.964843-.171875-2.988281v-2.304688c-.109375-4.472656 1.5625-8.804687 4.652344-12.039062 3.09375-3.234375 7.34375-5.105469 11.816406-5.199219h1.195313c9.246093.203125 16.597656 7.820313 16.46875 17.066407zm0 0" fill="#dfc49c"/><path d="m495.027344 78.578125v81.917969c0 33.878906-106.921875 61.355468-238.933594 61.355468s-238.933594-27.476562-238.933594-61.355468v-81.917969c-.5-5.101563 3.1875-9.660156 8.277344-10.242187h.257812v15.617187c-.566406 4.492187.742188 9.023437 3.613282 12.523437s7.058594 5.667969 11.574218 5.996094c5.261719-.085937 10.195313-2.566406 13.398438-6.742187 3.078125-3.835938 4.949219-8.5 5.375-13.398438h.257812c-.074218.738281-.101562 1.476563-.085937 2.21875v34.390625c-.21875 7.191406 2.617187 14.140625 7.800781 19.132813 5.1875 4.988281 12.238282 7.554687 19.417969 7.0625h1.195313c8.589843.066406 16.839843-3.351563 22.871093-9.472657.414063 7.570313 3.859375 14.652344 9.5625 19.644532 5.699219 4.996094 13.171875 7.480468 20.730469 6.894531h1.28125c9.707031.003906 19.019531-3.851563 25.886719-10.71875 6.867187-6.867187 10.722656-16.179687 10.71875-25.886719v28.074219c0 14.164063 8.535156 25.597656 34.132812 25.597656h1.453125c10.933594.007813 21.417969-4.332031 29.152344-12.0625 7.730469-7.730469 12.070312-18.21875 12.0625-29.152343-.007812 10.933593 4.332031 21.421874 12.0625 29.152343 7.734375 7.730469 18.21875 12.070313 29.152344 12.0625h1.453125c25.597656 0 34.132812-11.433593 34.132812-25.597656v-28.074219c-.003906 9.707032 3.851563 19.019532 10.71875 25.886719 6.867188 6.867187 16.179688 10.722656 25.886719 10.71875h1.28125c7.558594.585937 15.03125-1.898437 20.730469-6.894531 5.703125-4.992188 9.148437-12.074219 9.5625-19.644532 6.027343 6.121094 14.28125 9.539063 22.871093 9.472657h1.195313c7.179687.492187 14.230469-2.074219 19.417969-7.0625 5.183594-4.992188 8.019531-11.941407 7.800781-19.132813v-34.390625c.015625-.742187-.011719-1.480469-.085937-2.21875h.257812c.425781 4.898438 2.296875 9.5625 5.375 13.398438 3.203125 4.175781 8.136719 6.65625 13.398438 6.742187 4.515624-.328125 8.703124-2.496094 11.574218-5.996094s4.179688-8.03125 3.613282-12.523437v-15.617187h.257812c5.089844.582031 8.777344 5.140624 8.277344 10.242187zm0 0" fill="#ef314c"/><path d="m455.859375 344.902344-17.066406 17.066406c6.644531-6.644531 6.644531-17.417969 0-24.0625s-17.417969-6.644531-24.066407 0l17.070313-17.066406c4.296875-4.300782 10.5625-5.976563 16.433594-4.40625 5.871093 1.574218 10.460937 6.160156 12.03125 12.035156 1.574219 5.871094-.105469 12.136719-4.402344 16.433594zm0 0" fill="#cfd8dc"/><path d="m438.792969 361.96875-85.332031 85.335938c-3.175782 3.21875-7.511719 5.03125-12.035157 5.03125-4.523437 0-8.855469-1.8125-12.03125-5.03125l-34.132812-34.136719c-6.644531-6.644531-6.644531-17.417969 0-24.0625s17.417969-6.644531 24.0625 0l22.101562 22.015625 73.300781-73.214844c6.648438-6.644531 17.421876-6.644531 24.066407 0s6.644531 17.417969 0 24.0625zm0 0" fill="#f5f5f5"/><path d="m469.425781 98.203125h25.601563v81.066406h-25.601563zm0 0" fill="#bb193b"/><path d="m214.894531 187.804688h-1.46875c-38.507812 0-42.664062-23.894532-42.664062-34.132813v-52.054687c0-18.378907 14.898437-33.28125 33.277343-33.28125h27.308594c18.378906 0 33.28125 14.902343 33.28125 33.28125v36.488281c-.050781 27.441406-22.292968 49.671875-49.734375 49.699219zm-10.855469-102.402344c-8.953124 0-16.210937 7.261718-16.210937 16.214844v52.054687c0 4.667969 0 17.066406 25.597656 17.066406h1.46875c18.03125-.019531 32.648438-14.632812 32.664063-32.667969v-36.453124c0-8.953126-7.257813-16.214844-16.210938-16.214844zm0 0"/><path d="m142.675781 170.738281h-1.304687c-10.242188.664063-20.296875-3.015625-27.691406-10.136719-7.398438-7.117187-11.457032-17.019531-11.1875-27.28125v-40.234374c0-18.382813 14.902343-33.28125 33.28125-33.28125h18.773437c18.378906 0 33.28125 14.898437 33.28125 33.28125v32.535156c-.0625 24.90625-20.246094 45.074218-45.152344 45.117187zm-6.902343-93.867187c-8.953126 0-16.214844 7.257812-16.214844 16.214844v40.265624c-.128906 5.695313 2.179687 11.175782 6.347656 15.058594 4.164062 3.882813 9.792969 5.796875 15.464844 5.261719h1.304687c15.492188-.042969 28.042969-12.589844 28.085938-28.085937v-32.5c0-8.957032-7.261719-16.214844-16.214844-16.214844zm0 0"/><path d="m88.242188 153.671875h-1.195313c-9.433594.449219-18.632813-3.03125-25.410156-9.613281-6.773438-6.578125-10.519531-15.675782-10.34375-25.117188v-34.132812c-.039063-8.863282 3.445312-17.378906 9.6875-23.667969 6.242187-6.292969 14.730469-9.84375 23.59375-9.871094h11.09375c13.519531-.058593 25.75 8.019531 31 20.480469 1.824219 4.347656-.222657 9.351562-4.570313 11.175781s-9.347656-.222656-11.171875-4.570312c-2.644531-6.074219-8.632812-10.007813-15.257812-10.019531h-11.09375c-8.953125 0-16.214844 7.261718-16.214844 16.214843v34.390625c-.222656 4.933594 1.710937 9.71875 5.300781 13.109375 3.589844 3.394531 8.476563 5.054688 13.386719 4.554688h1.195313c6.304687.046875 12.359374-2.453125 16.792968-6.929688 3.351563-3.050781 8.5-2.953125 11.730469.222657 3.230469 3.175781 3.414063 8.324218.421875 11.722656-7.625 7.757812-18.066406 12.105468-28.945312 12.050781zm0 0"/><path d="m40.867188 111.003906c-6.789063-.277344-13.171876-3.324218-17.652344-8.433594-4.480469-5.109374-6.667969-11.832031-6.054688-18.601562v-15.476562c-.183594-14.011719 11-25.53125 25.011719-25.753907h1.175781c14.011719.222657 25.199219 11.742188 25.011719 25.753907v10.863281c1.023437 16.289062-11.21875 30.382812-27.492187 31.648437zm1.304687-51.199218c-4.585937.214843-8.136719 4.097656-7.945313 8.6875v15.476562c0 1.027344.1875 9.96875 6.640626 9.96875 5.648437 0 10.425781-6.679688 10.425781-14.582031v-10.863281c.195312-4.589844-3.355469-8.472657-7.945313-8.6875zm0 0"/><path d="m298.761719 187.804688h-1.46875c-27.453125-.027344-49.703125-22.277344-49.734375-49.734376v-36.453124c0-18.378907 14.902344-33.28125 33.28125-33.28125h27.308594c18.378906 0 33.277343 14.902343 33.277343 33.28125v52.054687c0 10.238281-4.15625 34.132813-42.664062 34.132813zm-17.921875-102.402344c-8.953125 0-16.210938 7.261718-16.210938 16.214844v36.488281c.035156 18.019531 14.644532 32.613281 32.664063 32.632812h1.46875c25.597656 0 25.597656-12.398437 25.597656-17.066406v-52.054687c0-8.953126-7.257813-16.214844-16.210937-16.214844zm0 0"/><path d="m370.816406 170.738281h-1.304687c-24.917969-.042969-45.109375-20.234375-45.152344-45.152343v-32.5c0-18.382813 14.902344-33.28125 33.28125-33.28125h18.773437c18.378907 0 33.28125 14.898437 33.28125 33.28125v40.265624c.257813 10.257813-3.804687 20.152344-11.199218 27.261719-7.394532 7.113281-17.441406 10.785157-27.679688 10.125zm-13.175781-93.867187c-8.953125 0-16.214844 7.257812-16.214844 16.214844v32.535156c.0625 15.480468 12.605469 28.007812 28.085938 28.050781h1.304687c5.675782.535156 11.3125-1.382813 15.480469-5.273437 4.167969-3.890626 6.472656-9.378907 6.332031-15.078126v-40.234374c0-8.957032-7.261718-16.214844-16.214844-16.214844zm0 0"/><path d="m425.140625 153.671875h-1.195313c-10.875.0625-21.3125-4.269531-28.945312-12.015625-2.339844-2.128906-3.308594-5.375-2.519531-8.4375.789062-3.0625 3.203125-5.4375 6.277343-6.171875 3.074219-.734375 6.304688.289063 8.394532 2.664063 4.441406 4.464843 10.496094 6.949218 16.792968 6.894531h1.195313c4.910156.5 9.796875-1.160157 13.386719-4.554688 3.589844-3.390625 5.523437-8.175781 5.300781-13.109375v-34.132812c.050781-4.339844-1.636719-8.519532-4.679687-11.613282-3.042969-3.089843-7.195313-4.839843-11.535157-4.859374h-11.09375c-6.628906.015624-12.621093 3.960937-15.257812 10.046874-1.828125 4.347657-6.839844 6.386719-11.1875 4.554688-4.347657-1.832031-6.386719-6.839844-4.554688-11.1875 5.25-12.460938 17.480469-20.539062 31-20.480469h11.09375c18.371094.023438 33.257813 14.910157 33.28125 33.28125v34.390625c.175781 9.441406-3.570312 18.539063-10.34375 25.117188-6.777343 6.582031-15.976562 10.0625-25.410156 9.613281zm0 0"/><path d="m471.320312 111.003906c-16.273437-1.265625-28.515624-15.359375-27.492187-31.648437v-10.863281c-.1875-14.011719 11-25.53125 25.011719-25.753907h1.175781c14.011719.222657 25.195313 11.742188 25.011719 25.753907v15.476562c.613281 6.769531-1.574219 13.492188-6.054688 18.601562-4.480468 5.109376-10.863281 8.15625-17.652344 8.433594zm-2.480468-51.199218c-4.589844.214843-8.140625 4.097656-7.945313 8.6875v10.863281c0 7.902343 4.777344 14.582031 10.425781 14.582031 6.453126 0 6.640626-8.941406 6.640626-9.96875v-15.476562c.191406-4.589844-3.359376-8.472657-7.945313-8.6875zm0 0"/><path d="m256.09375 230.410156c-122.972656 0-247.464844-24.027344-247.464844-69.972656v-81.859375c-.488281-9.792969 6.984375-18.15625 16.765625-18.773437 4.714844-.199219 8.695313 3.457031 8.898438 8.171874.199219 4.710938-3.460938 8.695313-8.171875 8.894532-.289063.523437-.4375 1.109375-.425782 1.707031v81.917969c0 22.085937 87.644532 52.90625 230.398438 52.90625s230.398438-30.804688 230.398438-52.90625v-81.917969c.011718-.597656-.136719-1.183594-.425782-1.707031-4.710937-.199219-8.371094-4.183594-8.171875-8.894532.203125-4.714843 4.183594-8.371093 8.898438-8.171874 9.78125.617187 17.253906 8.980468 16.765625 18.773437v81.917969c0 45.886718-124.492188 69.914062-247.464844 69.914062zm0 0"/><path d="m70.410156 443.472656c-24.875.710938-48.28125-11.734375-61.605468-32.753906-11.992188-21.230469-11.664063-47.269531.855468-68.195312 13.992188-22.53125 36.921875-31.855469 59.09375-40.867188 6.058594-2.457031 12.082032-4.90625 17.84375-7.621094 25.65625-11.679687 47.117188-30.941406 61.488282-55.191406 15.257812-26.414062 22.675781-59.871094 22.675781-102.300781 0-4.710938 3.820312-8.53125 8.53125-8.53125 4.714843 0 8.535156 3.820312 8.535156 8.53125 0 45.511719-8.167969 81.757812-24.960937 110.832031-16.109376 27.257812-40.1875 48.925781-68.984376 62.089844-6.039062 2.847656-12.355468 5.425781-18.695312 8.003906-20.546875 8.355469-39.960938 16.210938-51.039062 34.066406-9.132813 15.660156-9.308594 34.984375-.46875 50.8125 10.113281 17.921875 33.109374 24.945313 50.160156 23.953125 34.765625-2.15625 68.984375-22.832031 107.699218-65.066406 3.183594-3.472656 8.582032-3.703125 12.054688-.519531 3.476562 3.1875 3.707031 8.585937.523438 12.058594-26.359376 28.75-67.414063 67.34375-119.21875 70.5625-1.46875.09375-2.980469.136718-4.488282.136718zm0 0"/><path d="m307.542969 275.699219c-2.050781-.003907-4.03125-.742188-5.582031-2.082031-36.097657-31.292969-54.402344-77.417969-54.402344-137.097657 0-4.714843 3.824218-8.535156 8.535156-8.535156s8.535156 3.820313 8.535156 8.535156c0 54.511719 16.324219 96.289063 48.511719 124.195313 2.695313 2.332031 3.652344 6.097656 2.40625 9.4375s-4.441406 5.550781-8.003906 5.546875zm0 0"/><path d="m256.09375 119.539062c-4.710938 0-8.535156-3.820312-8.535156-8.535156v-64.058594c-.015625-8.871093-3.960938-17.277343-10.777344-22.953124-6.816406-5.675782-15.796875-8.035157-24.523438-6.445313-14.128906 3.660156-24.105468 16.257813-24.429687 30.847656v62.609375c0 4.714844-3.820313 8.535156-8.535156 8.535156-4.710938 0-8.53125-3.820312-8.53125-8.535156v-62.609375c.261719-22.90625 16.226562-42.632812 38.578125-47.667969 15.160156-2.691406 30.679687 2.1875 41.566406 13.074219 8.84375 8.753907 13.789062 20.699219 13.722656 33.144531v64.058594c0 4.714844-3.824218 8.535156-8.535156 8.535156zm0 0"/><path d="m375.558594 512.070312c-75.402344 0-136.53125-61.128906-136.53125-136.53125 0-75.40625 61.128906-136.535156 136.53125-136.535156 75.40625 0 136.535156 61.128906 136.535156 136.535156-.089844 75.367188-61.164062 136.441407-136.535156 136.53125zm0-256c-65.976563 0-119.464844 53.488282-119.464844 119.46875 0 65.976563 53.488281 119.464844 119.464844 119.464844 65.980468 0 119.46875-53.488281 119.46875-119.464844-.070313-65.953124-53.515625-119.398437-119.46875-119.46875zm0 0"/><path d="m341.425781 460.871094c-6.792969.019531-13.316406-2.679688-18.105469-7.5l-34.132812-34.132813c-4.804688-4.800781-7.5-11.316406-7.5-18.105469 0-6.789062 2.695312-13.300781 7.5-18.101562 10.132812-9.660156 26.070312-9.660156 36.207031 0l16.03125 16.03125 84.300781-84.289062c10.132813-9.671876 26.074219-9.671876 36.207032 0 4.804687 4.800781 7.5 11.3125 7.5 18.101562s-2.695313 13.300781-7.5 18.105469l-102.398438 102.398437c-4.789062 4.820313-11.3125 7.519532-18.109375 7.492188zm-34.132812-68.265625c-3.449219 0-6.5625 2.078125-7.882813 5.265625-1.320312 3.1875-.589844 6.859375 1.851563 9.300781l34.132812 34.132813c3.378907 3.21875 8.6875 3.21875 12.066407 0l102.398437-102.402344c3.332031-3.332032 3.332031-8.730469 0-12.066406-3.378906-3.214844-8.6875-3.214844-12.066406 0l-90.332031 90.328124c-3.332032 3.332032-8.734376 3.332032-12.066407 0l-22.066406-22.058593c-1.597656-1.605469-3.769531-2.507813-6.035156-2.5zm0 0"/></svg>